<?xml version="1.0" encoding="UTF-8"?>
<svg xmlns="http://www.w3.org/2000/svg" viewBox="0 0 800 380" role="img" aria-label="reader.Read percentile shape">
  <style>
    .axis-tick { font: 10px -apple-system, BlinkMacSystemFont, "Segoe UI", Roboto, sans-serif; fill: #6b7280; }
    .axis-label { font: 11px -apple-system, BlinkMacSystemFont, "Segoe UI", Roboto, sans-serif; fill: #6b7280; }
    .panel-title { font: 600 13px -apple-system, BlinkMacSystemFont, "Segoe UI", Roboto, sans-serif; fill: #18181b; }
    .grid-line { stroke: #e5e7eb; stroke-width: 1; stroke-dasharray: 2,3; }
    .label { font: 600 11px -apple-system, BlinkMacSystemFont, "Segoe UI", Roboto, sans-serif; }
  </style>
  <text x="400" y="20" class="panel-title" text-anchor="middle">reader.Read percentile shape: p50 -&gt; p99 -&gt; p99.9 -&gt; max (log scale)</text>
  <line x1="100" y1="320" x2="700" y2="320" stroke="#9ca3af" stroke-width="1"/>
  <line x1="100" y1="40"  x2="100" y2="320" stroke="#9ca3af" stroke-width="1"/>
  <text x="92" y="324" class="axis-tick" text-anchor="end">10 us</text>
  <text x="92" y="277" class="axis-tick" text-anchor="end">100 us</text>
  <text x="92" y="230" class="axis-tick" text-anchor="end">1 ms</text>
  <text x="92" y="184" class="axis-tick" text-anchor="end">10 ms</text>
  <text x="92" y="137" class="axis-tick" text-anchor="end">100 ms</text>
  <text x="92" y="90"  class="axis-tick" text-anchor="end">1 s</text>
  <text x="92" y="44"  class="axis-tick" text-anchor="end">10 s</text>
  <line x1="100" y1="273" x2="700" y2="273" class="grid-line"/>
  <line x1="100" y1="227" x2="700" y2="227" class="grid-line"/>
  <line x1="100" y1="180" x2="700" y2="180" class="grid-line"/>
  <line x1="100" y1="133" x2="700" y2="133" class="grid-line"/>
  <line x1="100" y1="87"  x2="700" y2="87"  class="grid-line"/>
  <line x1="100" y1="40"  x2="700" y2="40"  class="grid-line"/>
  <text x="160" y="338" class="axis-tick" text-anchor="middle">p50</text>
  <text x="340" y="338" class="axis-tick" text-anchor="middle">p99</text>
  <text x="520" y="338" class="axis-tick" text-anchor="middle">p99.9</text>
  <text x="680" y="338" class="axis-tick" text-anchor="middle">max</text>
  <polyline points="160,309 340,180 520,153 680,146" fill="none" stroke="#2563eb" stroke-width="2.5"/>
  <circle cx="160" cy="309" r="4" fill="#2563eb"/>
  <circle cx="340" cy="180" r="4" fill="#2563eb"/>
  <circle cx="520" cy="153" r="4" fill="#2563eb"/>
  <circle cx="680" cy="146" r="4" fill="#2563eb"/>
  <polyline points="160,298 340,53 520,50 680,50" fill="none" stroke="#dc2626" stroke-width="2.5"/>
  <circle cx="160" cy="298" r="4" fill="#dc2626"/>
  <circle cx="340" cy="53"  r="4" fill="#dc2626"/>
  <circle cx="520" cy="50"  r="4" fill="#dc2626"/>
  <circle cx="680" cy="50"  r="4" fill="#dc2626"/>
  <polyline points="160,301 340,225 520,186 680,172" fill="none" stroke="#475569" stroke-width="2.5"/>
  <circle cx="160" cy="301" r="4" fill="#475569"/>
  <circle cx="340" cy="225" r="4" fill="#475569"/>
  <circle cx="520" cy="186" r="4" fill="#475569"/>
  <circle cx="680" cy="172" r="4" fill="#475569"/>
  <polyline points="160,296 340,219 520,177 680,161" fill="none" stroke="#16a34a" stroke-width="2.5"/>
  <circle cx="160" cy="296" r="4" fill="#16a34a"/>
  <circle cx="340" cy="219" r="4" fill="#16a34a"/>
  <circle cx="520" cy="177" r="4" fill="#16a34a"/>
  <circle cx="680" cy="161" r="4" fill="#16a34a"/>
  <text x="690" y="146" class="label" fill="#2563eb">baseline</text>
  <text x="690" y="50"  class="label" fill="#dc2626">baseline-alt</text>
  <text x="690" y="172" class="label" fill="#475569">md-raid0</text>
  <text x="690" y="161" class="label" fill="#16a34a">ublk-r0</text>
</svg>
